<svg width="24" height="24" viewBox="0 0 24 24" fill="none" xmlns="http://www.w3.org/2000/svg">
<path fill-rule="evenodd" clip-rule="evenodd" d="M6.33711 5.93267C6.7277 6.32313 6.7278 6.9563 6.33734 7.34688C5.21879 8.46581 4.45712 9.89128 4.14865 11.4431C3.84018 12.9948 3.99876 14.6032 4.60434 16.0649C5.20991 17.5265 6.23529 18.7758 7.55083 19.6548C8.86637 20.5337 10.413 21.0028 11.9951 21.0028C13.5773 21.0028 15.1239 20.5337 16.4394 19.6548C17.7549 18.7758 18.7803 17.5265 19.3859 16.0649C19.9915 14.6032 20.1501 12.9948 19.8416 11.4431C19.5331 9.89128 18.7715 8.46581 17.6529 7.34688C17.2624 6.9563 17.2625 6.32313 17.6531 5.93267C18.0437 5.54221 18.6769 5.54231 19.0673 5.9329C20.4655 7.33156 21.4176 9.11339 21.8032 11.0531C22.1888 12.9928 21.9906 15.0033 21.2336 16.8304C20.4766 18.6575 19.1949 20.2191 17.5505 21.3177C15.9061 22.4164 13.9728 23.0028 11.9951 23.0028C10.0174 23.0028 8.08418 22.4164 6.43976 21.3177C4.79534 20.2191 3.51361 18.6575 2.75664 16.8304C1.99967 15.0033 1.80144 12.9928 2.18703 11.0531C2.57262 9.11339 3.5247 7.33156 4.9229 5.9329C5.31336 5.54231 5.94653 5.54221 6.33711 5.93267Z" fill="#4B98D9"/>
<path fill-rule="evenodd" clip-rule="evenodd" d="M12 1C12.5523 1 13 1.44772 13 2V12C13 12.5523 12.5523 13 12 13C11.4477 13 11 12.5523 11 12V2C11 1.44772 11.4477 1 12 1Z" fill="#4B98D9"/>
</svg>
