<svg width="24" height="24" viewBox="0 0 24 24" fill="none" xmlns="http://www.w3.org/2000/svg">
<path d="M17.0949 13.6495C17.8859 13.9446 18.725 14.1545 19.5662 14.2601C20.1228 14.344 20.613 14.613 20.9696 15.0277C21.3229 15.449 21.5139 15.9777 21.4992 16.5143L21.499 16.5143V16.528V19.2549C21.499 19.574 21.4383 19.8775 21.3144 20.154C21.1866 20.4396 21.0071 20.6938 20.7749 20.9115C20.5313 21.1314 20.2734 21.284 19.9821 21.3785L19.9821 21.3783L19.9695 21.3828C19.745 21.4624 19.5098 21.5 19.26 21.5H19.2509C19.1674 21.5 19.1092 21.4997 19.0468 21.4935C16.1764 21.1825 13.3852 20.1878 10.9773 18.6257L10.9773 18.6257L10.973 18.6229C8.73429 17.2031 6.7966 15.2675 5.37526 13.0314L5.37527 13.0314L5.37293 13.0278C3.80974 10.6146 2.82262 7.81802 2.51093 4.95044C2.4806 4.61994 2.51308 4.31333 2.61178 4.03868L2.61435 4.03152L2.61671 4.02428C2.71119 3.73391 2.87324 3.46583 3.0873 3.2291C3.29276 3.00188 3.54378 2.82373 3.83817 2.69555L3.83818 2.69557L3.84256 2.69361C4.12683 2.56658 4.43178 2.5 4.7433 2.5H7.4823C8.01487 2.5 8.54686 2.68768 8.96485 3.04556L8.96542 3.04605C9.3737 3.39455 9.64209 3.88505 9.71682 4.42093C9.83148 5.26979 10.0414 6.09848 10.3366 6.8974L10.3368 6.89795C10.4861 7.30059 10.5161 7.73284 10.4263 8.15139C10.3365 8.5699 10.1269 8.95711 9.83143 9.25227L9.17406 9.90891L8.88897 10.1937L9.10667 10.5328C10.2224 12.2706 11.6982 13.7546 13.4494 14.8704L13.7877 15.0859L14.0715 14.8024L14.7288 14.1458C15.0346 13.8404 15.4204 13.6339 15.8321 13.5531L15.8321 13.5532L15.8405 13.5514C16.2597 13.4617 16.6897 13.4921 17.0886 13.6471L17.0886 13.6471L17.0949 13.6495ZM8.13459 3.50355L8.19452 3.32399H7.50056H4.7433C4.54714 3.32399 4.35417 3.36532 4.18597 3.43533L4.17729 3.43894L4.16876 3.44288C3.99253 3.52412 3.83579 3.63636 3.70534 3.78114C3.59191 3.90703 3.47023 4.08018 3.40582 4.30154C3.35467 4.46935 3.32668 4.65761 3.3407 4.85372L3.34133 4.8625L3.34226 4.87126C3.63363 7.59392 4.58216 10.2671 6.07523 12.5843C7.43792 14.7243 9.28792 16.5724 11.4301 17.9336C13.7423 19.4354 16.4092 20.3729 19.1322 20.673L19.1595 20.676H19.187C19.1919 20.676 19.1972 20.676 19.2028 20.676C19.3055 20.6763 19.5149 20.6769 19.7224 20.5972C19.8769 20.5378 20.055 20.4465 20.206 20.3107L19.8717 19.9389L20.206 20.3107C20.3589 20.1733 20.4659 20.0056 20.538 19.8617L20.5415 19.8548L20.5447 19.8477C20.6394 19.6427 20.6639 19.4373 20.6639 19.264V16.5007C20.6639 16.1707 20.5587 15.8303 20.3228 15.5624C20.0977 15.2978 19.7855 15.1268 19.4419 15.0836C18.5528 14.9704 17.6594 14.7436 16.7975 14.4276C16.5348 14.3267 16.2635 14.3159 16.0073 14.3698C15.7469 14.4245 15.4989 14.5507 15.3037 14.7573L14.1499 15.9098C14.0204 16.0392 13.8191 16.0671 13.6537 15.9742C11.3051 14.6423 9.36116 12.6924 8.01737 10.3529C7.92523 10.1884 7.95302 9.98845 8.08217 9.85945L9.24168 8.70122C9.43329 8.50982 9.5597 8.26588 9.61495 8.00371C9.66911 7.74675 9.65808 7.47454 9.55613 7.21108C9.23306 6.35586 9.0139 5.46362 8.89089 4.5603C8.84674 4.22513 8.67447 3.91491 8.41181 3.69188C8.32575 3.61622 8.23256 3.55358 8.13459 3.50355Z" fill="#4B98D9" stroke="#4B98D9"/>
</svg>
